<?xml version="1.0" encoding="UTF-8" standalone="no"?>
<!DOCTYPE svg PUBLIC "-//W3C//DTD SVG 1.0//EN"
 "http://www.w3.org/TR/2001/REC-SVG-20010904/DTD/svg10.dtd">
<!-- Generated by dot version 2.2.1 (Thu Apr  6 00:32:47 UTC 2006)
     For user: (bbieber) Brett Bieber,,,   Title: class_structure    Pages: 1 -->
<svg width="2230pt" height="312pt"
 viewBox = "-1 -1 2229 311"
 xmlns="http://www.w3.org/2000/svg">
<g id="graph0" class="graph" style="font-family:Times-Roman;font-size:14.00;">
<title>class_structure</title>
<g id="node1" class="node"><title>UNL_UCBCN_Frontend</title>
<ellipse cx="180" cy="154" rx="136" ry="25" style="fill:none;stroke:#1e92ff;"/>
<text text-anchor="middle" style="font-size:24.00;fill:#104f8a;" x="180" y="162">UNL_UCBCN_Frontend</text>
</g>
<g id="node7" class="node"><title>UNL_UCBCN_Frontend_Search</title>
<ellipse cx="180" cy="278" rx="174" ry="25" style="fill:none;stroke:#1e92ff;"/>
<text text-anchor="middle" style="font-size:24.00;fill:#104f8a;" x="180" y="286">UNL_UCBCN_Frontend_Search</text>
</g>
<g id="edge12" class="edge"><title>UNL_UCBCN_Frontend&#45;&gt;UNL_UCBCN_Frontend_Search</title>
<path style="fill:none;stroke:#36648a;" d="M180,190C180,210 180,234 180,252"/>
<polygon style="fill:#36648a;stroke:#36648a;" points="177,190 180,180 184,190 177,190"/>
</g>
<g id="node2" class="node"><title>UNL_UCBCN_Frontend_setup_postinstall</title>
<ellipse cx="1385" cy="30" rx="223" ry="25" style="fill:none;stroke:#1e92ff;"/>
<text text-anchor="middle" style="font-size:24.00;fill:#104f8a;" x="1385" y="38">UNL_UCBCN_Frontend_setup_postinstall</text>
</g>
<g id="node3" class="node"><title>UNL_UCBCN_Frontend_Day</title>
<ellipse cx="498" cy="154" rx="162" ry="25" style="fill:none;stroke:#1e92ff;"/>
<text text-anchor="middle" style="font-size:24.00;fill:#104f8a;" x="498" y="162">UNL_UCBCN_Frontend_Day</text>
</g>
<g id="node4" class="node"><title>UNL_UCBCN_Frontend_Month</title>
<ellipse cx="854" cy="154" rx="174" ry="25" style="fill:none;stroke:#1e92ff;"/>
<text text-anchor="middle" style="font-size:24.00;fill:#104f8a;" x="854" y="162">UNL_UCBCN_Frontend_Month</text>
</g>
<g id="node5" class="node"><title>UNL_UCBCN_Frontend_MonthWidget</title>
<ellipse cx="1257" cy="154" rx="209" ry="25" style="fill:none;stroke:#1e92ff;"/>
<text text-anchor="middle" style="font-size:24.00;fill:#104f8a;" x="1257" y="162">UNL_UCBCN_Frontend_MonthWidget</text>
</g>
<g id="node6" class="node"><title>UNL_UCBCN_Frontend_Year</title>
<ellipse cx="1651" cy="154" rx="165" ry="25" style="fill:none;stroke:#1e92ff;"/>
<text text-anchor="middle" style="font-size:24.00;fill:#104f8a;" x="1651" y="162">UNL_UCBCN_Frontend_Year</text>
</g>
<g id="node8" class="node"><title>UNL_UCBCN_Frontend_Upcoming</title>
<ellipse cx="2029" cy="154" rx="193" ry="25" style="fill:none;stroke:#1e92ff;"/>
<text text-anchor="middle" style="font-size:24.00;fill:#104f8a;" x="2029" y="162">UNL_UCBCN_Frontend_Upcoming</text>
</g>
<g id="node9" class="node"><title>Exception</title>
<ellipse cx="1691" cy="30" rx="63" ry="25" style="fill:none;stroke:#1e92ff;"/>
<text text-anchor="middle" style="font-size:24.00;fill:#104f8a;" x="1691" y="38">Exception</text>
</g>
<g id="node10" class="node"><title>UNL_UCBCN_Manager</title>
<polygon style="fill:none;stroke:#ff7e00;" points="2031,12 1773,12 1773,48 2031,48 2031,12"/>
<text text-anchor="middle" style="font-size:24.00;fill:#cd6500;" x="1902" y="38">UNL_UCBCN_Manager</text>
</g>
<g id="node11" class="node"><title>UNL_UCBCN</title>
<ellipse cx="1055" cy="30" rx="87" ry="25" style="fill:none;stroke:black;"/>
<text text-anchor="middle" style="font-size:24.00;" x="1055" y="38">UNL_UCBCN</text>
</g>
<g id="edge2" class="edge"><title>UNL_UCBCN&#45;&gt;UNL_UCBCN_Frontend</title>
<path style="fill:none;stroke:#36648a;" d="M964,41C825,58 555,93 326,128 311,131 294,133 279,136"/>
<polygon style="fill:#36648a;stroke:#36648a;" points="964,38 974,40 964,44 964,38"/>
</g>
<g id="edge4" class="edge"><title>UNL_UCBCN&#45;&gt;UNL_UCBCN_Frontend_Day</title>
<path style="fill:none;stroke:#36648a;" d="M975,48C873,71 699,109 592,133"/>
<polygon style="fill:#36648a;stroke:#36648a;" points="975,45 985,46 976,51 975,45"/>
</g>
<g id="edge6" class="edge"><title>UNL_UCBCN&#45;&gt;UNL_UCBCN_Frontend_Month</title>
<path style="fill:none;stroke:#36648a;" d="M1009,58C974,80 927,109 894,129"/>
<polygon style="fill:#36648a;stroke:#36648a;" points="1007,55 1017,53 1010,61 1007,55"/>
</g>
<g id="edge8" class="edge"><title>UNL_UCBCN&#45;&gt;UNL_UCBCN_Frontend_MonthWidget</title>
<path style="fill:none;stroke:#36648a;" d="M1101,58C1136,80 1183,109 1216,129"/>
<polygon style="fill:#36648a;stroke:#36648a;" points="1100,61 1093,53 1103,55 1100,61"/>
</g>
<g id="edge10" class="edge"><title>UNL_UCBCN&#45;&gt;UNL_UCBCN_Frontend_Year</title>
<path style="fill:none;stroke:#36648a;" d="M1129,51C1137,53 1144,55 1152,56 1285,87 1440,117 1541,135"/>
<polygon style="fill:#36648a;stroke:#36648a;" points="1128,54 1119,48 1130,48 1128,54"/>
</g>
<g id="edge14" class="edge"><title>UNL_UCBCN&#45;&gt;UNL_UCBCN_Frontend_Upcoming</title>
<path style="fill:none;stroke:#36648a;" d="M1127,50C1135,53 1144,55 1152,56 1448,112 1526,93 1826,128 1847,131 1869,133 1891,136"/>
<polygon style="fill:#36648a;stroke:#36648a;" points="1126,53 1117,48 1127,47 1126,53"/>
</g>
</g>
</svg>
